<svg width="16" height="16" viewBox="0 0 16 16" fill="none" xmlns="http://www.w3.org/2000/svg">
<path d="M13.1361 7.20898C13.399 7.68136 13.399 8.31908 13.1361 8.79069C12.3077 10.2756 10.3203 13.3332 8.00004 13.3332C5.67977 13.3332 3.69239 10.2756 2.86403 8.79069C2.73608 8.56451 2.66663 8.28625 2.66663 7.99984C2.66663 7.71342 2.73608 7.43516 2.86403 7.20898C3.69239 5.72403 5.67977 2.6665 8.00004 2.6665C10.3203 2.6665 12.3077 5.72403 13.1361 7.20898V7.20898Z" stroke="#43454C" stroke-width="0.833333" stroke-linecap="round" stroke-linejoin="round"/>
<path d="M8.00004 10.2853C8.91931 10.2853 9.66452 9.26195 9.66452 7.99958C9.66452 6.73722 8.91931 5.71387 8.00004 5.71387C7.08078 5.71387 6.33557 6.73722 6.33557 7.99958C6.33557 9.26195 7.08078 10.2853 8.00004 10.2853Z" stroke="#43454C" stroke-width="0.833333" stroke-linecap="round" stroke-linejoin="round"/>
</svg>
