<svg width="24" height="24" viewBox="0 0 24 24" fill="none" xmlns="http://www.w3.org/2000/svg">
<path fill-rule="evenodd" clip-rule="evenodd" d="M4.6315 3C4.4425 3 4.274 3.131 4.209 3.32799L3.055 6.83343C3.01856 6.94428 3 7.06023 3 7.17692V8.57139C3 9.35988 3.5755 9.99986 4.2855 9.99986C4.9955 9.99986 5.5715 9.35988 5.5715 8.57139C5.5715 9.36038 6.147 9.99986 6.857 9.99986C7.567 9.99986 8.143 9.35988 8.143 8.57139C8.143 9.36038 8.7185 9.99986 9.4285 9.99986C10.1385 9.99986 10.7135 9.36088 10.7145 8.57239C10.7145 9.36088 11.29 9.99986 12 9.99986C12.71 9.99986 13.2855 9.35988 13.2855 8.57139C13.2855 9.36038 13.8615 9.99986 14.5715 9.99986C15.2815 9.99986 15.8565 9.36088 15.857 8.57239C15.8575 9.36088 16.433 9.99986 17.143 9.99986C17.853 9.99986 18.4285 9.35988 18.4285 8.57139C18.4285 9.36038 19.004 9.99986 19.7145 9.99986C20.4245 9.99986 21 9.35988 21 8.57139V7.17692C21 7.06023 20.9814 6.94428 20.945 6.83343L19.791 3.32849C19.726 3.131 19.5575 3 19.3685 3H4.6315Z" fill="#727479"/>
<path fill-rule="evenodd" clip-rule="evenodd" d="M5 10.615V14.4999H3.75C3.6837 14.4999 3.62011 14.5262 3.57322 14.5731C3.52634 14.62 3.5 14.6836 3.5 14.7499V15.2499C3.5 15.3162 3.52634 15.3798 3.57322 15.4267C3.62011 15.4735 3.6837 15.4999 3.75 15.4999H20.25C20.3163 15.4999 20.3799 15.4735 20.4268 15.4267C20.4737 15.3798 20.5 15.3162 20.5 15.2499V14.7499C20.5 14.6836 20.4737 14.62 20.4268 14.5731C20.3799 14.5262 20.3163 14.4999 20.25 14.4999H19V10.615C18.7907 10.5316 18.5974 10.4127 18.4285 10.2635C18.2989 10.3778 18.1548 10.4746 18 10.5515V14.4999H6V10.5515C5.84519 10.4746 5.70113 10.3778 5.5715 10.2635C5.4035 10.411 5.2115 10.531 5 10.615ZM18 9.6365C18.0425 9.594 18.0825 9.5485 18.12 9.5H18V9.6365ZM18.737 9.5C18.8126 9.59794 18.9011 9.68522 19 9.75949V9.5H18.737ZM5 9.75949C5.09944 9.6858 5.18798 9.59844 5.263 9.5H5V9.75949ZM5.88 9.5H6V9.6365C5.95705 9.59368 5.91696 9.54808 5.88 9.5ZM4.25 16.4999C4.1837 16.4999 4.12011 16.5262 4.07322 16.5731C4.02634 16.62 4 16.6836 4 16.7499V20.4998C4 20.6324 4.05268 20.7596 4.14645 20.8533C4.24021 20.9471 4.36739 20.9998 4.5 20.9998H19.5C19.6326 20.9998 19.7598 20.9471 19.8536 20.8533C19.9473 20.7596 20 20.6324 20 20.4998V16.7499C20 16.6836 19.9737 16.62 19.9268 16.5731C19.8799 16.5262 19.8163 16.4999 19.75 16.4999H4.25Z" fill="#727479"/>
<path d="M8.75 12.9995H7.25C7.11193 12.9995 7 13.1114 7 13.2495V14.2495C7 14.3876 7.11193 14.4995 7.25 14.4995H8.75C8.88807 14.4995 9 14.3876 9 14.2495V13.2495C9 13.1114 8.88807 12.9995 8.75 12.9995Z" fill="#727479"/>
<path d="M9.75 13.499H8.25C8.11193 13.499 8 13.611 8 13.749V14.249C8 14.3871 8.11193 14.499 8.25 14.499H9.75C9.88807 14.499 10 14.3871 10 14.249V13.749C10 13.611 9.88807 13.499 9.75 13.499Z" fill="#727479"/>
<path d="M11.25 14.4995C11.6642 14.4995 12 14.1637 12 13.7495C12 13.3353 11.6642 12.9995 11.25 12.9995C10.8358 12.9995 10.5 13.3353 10.5 13.7495C10.5 14.1637 10.8358 14.4995 11.25 14.4995Z" fill="#727479"/>
</svg>
