<svg width="24" height="24" viewBox="0 0 24 24" fill="none" xmlns="http://www.w3.org/2000/svg">
<path d="M3 5C3 4.45 3.19567 3.979 3.587 3.587C3.979 3.19567 4.45 3 5 3V5H3ZM3 13V11H5V13H3ZM7 21V19H9V21H7ZM3 9V7H5V9H3ZM11 5V3H13V5H11ZM19 5V3C19.55 3 20.021 3.19567 20.413 3.587C20.8043 3.979 21 4.45 21 5H19ZM5 21C4.45 21 3.979 20.8043 3.587 20.413C3.19567 20.021 3 19.55 3 19H5V21ZM3 17V15H5V17H3ZM7 5V3H9V5H7ZM11 21V19H13V21H11ZM19 13V11H21V13H19ZM19 21V19H21C21 19.55 20.8043 20.021 20.413 20.413C20.021 20.8043 19.55 21 19 21ZM19 9V7H21V9H19ZM19 17V15H21V17H19ZM15 21V19H17V21H15ZM15 5V3H17V5H15ZM8 17C7.71667 17 7.479 16.904 7.287 16.712C7.09567 16.5207 7 16.2833 7 16V8C7 7.71667 7.09567 7.479 7.287 7.287C7.479 7.09567 7.71667 7 8 7H16C16.2833 7 16.5207 7.09567 16.712 7.287C16.904 7.479 17 7.71667 17 8V16C17 16.2833 16.904 16.5207 16.712 16.712C16.5207 16.904 16.2833 17 16 17H8ZM9 15H15V9H9V15Z" fill="#14171F" fill-opacity="0.65"/>
</svg>
